<svg width="32" height="32" viewBox="0 0 32 32" fill="none" xmlns="http://www.w3.org/2000/svg">
<path d="M10.186 15.3574L8.664 13.8446L10.359 12.1589L9.683 11.486L7.987 13.1707L6.143 11.3389L8.776 8.72281L8.099 8.04991L5.466 10.665L3.622 8.83314L5.317 7.14742L4.64 6.47452L2.945 8.15925L1.354 6.57888L6.619 1.34579L15.449 10.1223L16.126 9.44938L6.619 0L0 6.57888L9.509 16.0293L10.186 15.3574Z" fill="#5221E6"/>
<path d="M22.491 15.7756L21.813 16.4485L30.646 25.227L25.381 30.4601L23.791 28.8787L25.486 27.194L24.809 26.5211L23.113 28.2058L21.27 26.373L23.901 23.756L23.224 23.0831L20.592 25.7001L18.749 23.8673L20.444 22.1816L19.767 21.5097L18.072 23.1944L16.551 21.6836L15.874 22.3565L25.381 31.8059L32 25.227L22.491 15.7756Z" fill="#5221E6"/>
<path d="M30.2711 5.83137C30.9351 5.1714 30.9341 4.09794 30.2711 3.43896L28.5411 1.71945C27.8971 1.07935 26.7771 1.08034 26.1341 1.71945L4.23205 23.4867C4.19005 23.5285 4.16905 23.5831 4.14505 23.6358L4.13305 23.6308L1.40405 29.7833C1.32405 29.9632 1.36405 30.1729 1.50405 30.3121C1.59605 30.4035 1.71805 30.4512 1.84205 30.4512C1.90705 30.4512 1.97305 30.4383 2.03505 30.4105L8.22506 27.698L8.22405 27.6961C8.27705 27.6732 8.32805 27.6414 8.37005 27.5986L30.2711 5.83137ZM26.8101 2.39135C27.0921 2.11404 27.5811 2.11205 27.8631 2.39135L29.5941 4.11186C29.8841 4.4001 29.8841 4.87023 29.5941 5.15848L27.9861 6.75673L25.2021 3.9896L26.8101 2.39135ZM6.24405 27.5261L4.30605 25.5998L4.84205 24.3932L6.88605 24.9627L7.45905 26.9943L6.24405 27.5261ZM3.89205 26.5341L5.30505 27.9386L2.77805 29.0458L3.89205 26.5341ZM7.73505 24.4479C7.69005 24.2878 7.56405 24.1626 7.40305 24.1179L5.48705 23.5841L24.5251 4.6625L27.3091 7.43062L8.27206 26.3512L7.73505 24.4479Z" fill="#5221E6"/>
<path d="M24.3474 6.93221L8.50342 22.6802L9.18082 23.3535L25.0248 7.6055L24.3474 6.93221Z" fill="#5221E6"/>
</svg>
