<svg width="228" height="270" viewBox="0 0 228 270" fill="none" xmlns="http://www.w3.org/2000/svg">
<path d="M78.3779 184V77.3594H108.48C117.758 77.3594 125.961 79.4102 133.09 83.5117C140.219 87.6133 145.712 93.4482 149.569 101.017C153.476 108.585 155.453 117.276 155.502 127.091V133.902C155.502 143.961 153.549 152.774 149.643 160.343C145.785 167.911 140.243 173.722 133.017 177.774C125.839 181.827 117.465 183.902 107.895 184H78.3779ZM92.4404 88.9316V172.501H107.235C118.075 172.501 126.498 169.132 132.504 162.394C138.559 155.655 141.586 146.061 141.586 133.609V127.384C141.586 115.274 138.729 105.875 133.017 99.1855C127.353 92.4473 119.296 89.0293 108.847 88.9316H92.4404Z" fill="#5221E6"/>
<path d="M6 77.3964L113.546 8L222 77.3964V189.882L113.546 262L6 189.882V77.3964Z" stroke="#5221E6" stroke-width="12"/>
</svg>
