<svg width="20" height="32" viewBox="0 0 20 32" fill="none" xmlns="http://www.w3.org/2000/svg">
<path d="M2.06897 0C0.934693 0 0 0.963772 0 2.13333V29.8667C0 31.0362 0.934693 32 2.06897 32H17.931C19.0653 32 20 31.0362 20 29.8667V2.13333C20 0.963772 19.0653 0 17.931 0H2.06897ZM2.06897 1.42222H17.931C18.325 1.42222 18.6207 1.72708 18.6207 2.13333V2.84444H1.37931V2.13333C1.37931 1.72708 1.67497 1.42222 2.06897 1.42222ZM1.37931 4.26667H18.6207V26.3111H1.37931V4.26667ZM14.3103 5.33333C14.2221 5.33333 14.1406 5.37502 14.0733 5.44444C13.9386 5.5833 13.9386 5.8056 14.0733 5.94444L16.9935 8.96667C17.1282 9.10552 17.3546 9.10552 17.4892 8.96667C17.6239 8.82783 17.6239 8.59441 17.4892 8.45556L14.5582 5.44444C14.4909 5.37503 14.3986 5.33333 14.3103 5.33333ZM12.8556 6.34444C12.7674 6.34444 12.6751 6.37502 12.6078 6.44444C12.4731 6.5833 12.4731 6.81671 12.6078 6.95556L16.0237 10.4667C16.1584 10.6055 16.374 10.6055 16.5086 10.4667C16.6433 10.3278 16.6433 10.1055 16.5086 9.96667L13.0927 6.44444C13.0253 6.37502 12.9439 6.34445 12.8556 6.34444ZM1.37931 27.7333H18.6207V29.8667C18.6207 30.2729 18.325 30.5778 17.931 30.5778H2.06897C1.67497 30.5778 1.38283 30.2729 1.37931 29.8667V27.7333ZM10 28.4444C9.61911 28.4444 9.31034 28.7628 9.31034 29.1556C9.31034 29.5483 9.61911 29.8667 10 29.8667C10.3809 29.8667 10.6897 29.5483 10.6897 29.1556C10.6897 28.7628 10.3809 28.4444 10 28.4444Z" fill="#5221E6"/>
</svg>
