<svg width="41" height="27" viewBox="0 0 41 27" fill="none" xmlns="http://www.w3.org/2000/svg">
<path d="M9.04327 10.8066L7.90576 10.4653C7.79201 10.4085 7.67825 10.2947 7.67825 10.181V5.68776C7.67825 5.57401 7.73513 5.46026 7.90576 5.40338L9.04327 5.06213C9.44141 4.94838 9.78266 4.55024 9.72579 4.15211C9.66891 3.58335 9.15703 3.29897 8.64514 3.41273L6.93887 3.92461C6.88199 3.92461 6.82512 3.92461 6.76824 3.92461L5.06196 3.41273C4.55008 3.2421 4.0382 3.58335 3.98132 4.15211C3.92445 4.55024 4.2657 4.94838 4.66383 5.06213L5.80135 5.40338C5.9151 5.46026 6.02885 5.57401 6.02885 5.68776V10.181C6.02885 10.2947 5.97198 10.4085 5.80135 10.4653L4.66383 10.8066C4.2657 10.9203 3.92445 11.3185 3.98132 11.7735C4.0382 12.2285 4.43633 12.5129 4.83446 12.5129C4.89134 12.5129 5.00509 12.5129 5.06196 12.456L6.76824 11.9441C6.82512 11.9441 6.88199 11.9441 6.93887 11.9441L8.64514 12.456C8.70202 12.456 8.81577 12.5129 8.87265 12.5129C9.27078 12.5129 9.66891 12.2285 9.72579 11.7735C9.78266 11.3185 9.49828 10.9203 9.04327 10.8066Z" fill="#5221E6"/>
<path d="M19.5653 13.5933H3.12817C2.67317 13.5933 2.27503 13.1952 2.27503 12.7402V3.12817C2.27503 2.67317 2.67317 2.27503 3.12817 2.27503H23.0347C23.1485 2.27503 23.2622 2.21816 23.3191 2.16128C23.6035 1.99066 24.2291 1.59252 24.5704 1.4219C25.8785 0.796262 27.3004 0.455007 28.7223 0.455007C30.6561 0.455007 32.533 1.02377 34.0686 2.04753C34.2393 2.16128 34.4099 2.21816 34.6374 2.21816H37.2537C37.7087 2.21816 38.1068 2.61629 38.1068 3.0713V7.67824C38.505 9.27077 38.505 10.9202 38.1068 12.5127V12.6833C38.1068 12.9108 38.05 13.0814 37.8793 13.2521C37.5949 14.0483 37.1968 14.8446 36.7418 15.584L36.9124 15.8684H39.2443C39.87 15.8684 40.3819 15.3565 40.3819 14.7309V1.13752C40.3819 0.511883 39.87 0 39.2443 0H1.13752C0.511883 0 0 0.511883 0 1.13752V14.7309C0 15.3565 0.511883 15.8684 1.13752 15.8684H20.1341C20.4753 15.8684 20.7028 15.4702 20.5322 15.129C20.3616 14.8446 20.1909 14.5033 20.0203 14.1621C19.9634 14.0483 19.8497 13.8208 19.7928 13.7071C19.7928 13.6502 19.6791 13.5933 19.5653 13.5933Z" fill="#5221E6"/>
<path d="M35.2629 6.71139C33.2154 2.90071 28.2672 1.59256 24.5703 4.0951C21.7833 5.972 20.6458 9.66893 21.8971 12.7971C23.2052 16.1528 26.5609 17.9159 29.8028 17.4609C30.0872 17.4041 30.3716 17.5747 30.4853 17.8591L33.6135 25.6511C34.0685 26.8454 35.4904 27.3573 36.5711 26.7317L38.0498 25.9354C39.1874 25.3667 39.5286 23.8879 38.7892 22.8641L34.0685 15.9253C33.8979 15.6978 33.8979 15.3565 34.1254 15.129C36.2298 12.854 36.7417 9.49831 35.2629 6.71139ZM31.3954 15.129C28.6653 16.6078 25.2528 15.5271 23.8309 12.7971C22.3521 10.0671 23.3759 6.65451 26.1059 5.17574C28.8359 3.69697 32.2485 4.77761 33.6704 7.50765C35.1492 10.2377 34.1254 13.6502 31.3954 15.129Z" fill="#5221E6"/>
</svg>
