<svg width="38" height="29" viewBox="0 0 38 29" fill="none" xmlns="http://www.w3.org/2000/svg">
<path d="M18.9805 24.1818C23.3278 24.1818 26.86 20.6496 26.86 16.3023C26.86 11.955 23.3278 8.42285 18.9805 8.42285C14.6332 8.42285 11.1011 11.955 11.1011 16.3023C11.1011 20.6496 14.6332 24.1818 18.9805 24.1818ZM14.051 21.1542C14.0898 21.1542 14.0898 21.1154 14.1286 21.1154C14.6721 20.8437 15.2931 20.6108 15.9141 20.4167C16.2247 21.3095 16.6516 22.1634 17.1951 22.9009C17.2339 22.9397 17.2338 22.9785 17.2727 23.0173C15.9918 22.668 14.9049 22.0081 14.051 21.1542ZM21.814 16.8069C21.7752 17.6609 21.6588 18.5148 21.4259 19.2911C20.6496 19.1358 19.8345 19.0582 18.9805 19.0582C18.1266 19.0582 17.3115 19.1358 16.5352 19.2911C16.3023 18.5148 16.1859 17.6609 16.147 16.8069H21.814ZM16.147 15.8366C16.1859 14.9826 16.3023 14.1287 16.5352 13.3524C17.3115 13.5076 18.1266 13.5853 18.9805 13.5853C19.8345 13.5853 20.6496 13.5076 21.4259 13.3524C21.6588 14.1287 21.7752 14.9826 21.814 15.8366H16.147ZM19.3299 23.2114C19.2134 23.2114 19.097 23.2114 18.9805 23.2114C18.8641 23.2114 18.7476 23.2114 18.6312 23.2114C18.5924 23.1726 18.5924 23.1726 18.5536 23.1338C17.8549 22.3187 17.2727 21.3095 16.8457 20.2227C17.5444 20.1062 18.243 20.0286 19.0193 20.0286C19.7956 20.0286 20.4943 20.1062 21.193 20.2227C20.766 21.3483 20.1838 22.3187 19.4851 23.1338C19.4075 23.1726 19.3687 23.1726 19.3299 23.2114ZM20.7272 23.0173C20.766 22.9785 20.766 22.9397 20.8049 22.9009C21.3094 22.1634 21.7364 21.3483 22.0857 20.4167C22.7068 20.6108 23.289 20.8049 23.8712 21.0766C23.91 21.0766 23.9101 21.1154 23.9489 21.1154C23.0561 22.0081 21.9693 22.668 20.7272 23.0173ZM24.5311 20.4167C24.4923 20.4167 24.4923 20.3779 24.4535 20.3779C23.7936 20.0286 23.0949 19.7569 22.3186 19.524C22.5515 18.6701 22.7068 17.7385 22.7456 16.8069H25.8508C25.7732 18.1266 25.3074 19.3687 24.5311 20.4167ZM24.5311 12.2267C25.2686 13.2359 25.7732 14.478 25.8508 15.8366H22.7456C22.7068 14.905 22.5515 13.9734 22.3186 13.1195C23.0561 12.8866 23.7936 12.6149 24.4535 12.2656C24.4923 12.2656 24.5311 12.2267 24.5311 12.2267ZM23.9101 11.4893C23.8712 11.4893 23.8712 11.5281 23.8324 11.5281C23.289 11.7998 22.668 12.0327 22.0469 12.1879C21.7364 11.2952 21.3094 10.4412 20.766 9.70375C20.7272 9.66493 20.7272 9.62612 20.6884 9.5873C21.9693 9.93664 23.0561 10.5965 23.9101 11.4893ZM18.6312 9.43206C18.7476 9.43206 18.8641 9.43206 18.9805 9.43206C19.097 9.43206 19.2134 9.43206 19.3299 9.43206C19.3687 9.47087 19.3687 9.47085 19.4075 9.50967C20.1062 10.3248 20.6884 11.334 21.1154 12.4208C20.4167 12.5372 19.718 12.6149 18.9417 12.6149C18.1654 12.6149 17.4667 12.5372 16.7681 12.4208C17.195 11.2952 17.7773 10.3248 18.4759 9.50967C18.5536 9.47085 18.5924 9.43206 18.6312 9.43206ZM17.2339 9.62613C17.195 9.66495 17.195 9.70376 17.1562 9.74257C16.6516 10.4801 16.2247 11.2952 15.8753 12.2267C15.2543 12.0327 14.6721 11.8386 14.0898 11.5669C14.051 11.5669 14.051 11.5281 14.0122 11.5281C14.905 10.5965 15.9918 9.93665 17.2339 9.62613ZM13.43 12.2267C13.4688 12.2267 13.4688 12.2656 13.5076 12.2656C14.1675 12.6149 14.8661 12.8866 15.6424 13.1195C15.4096 13.9734 15.2543 14.905 15.2155 15.8366H12.1103C12.1879 14.478 12.6537 13.2359 13.43 12.2267ZM15.1767 16.8069C15.2155 17.7385 15.3707 18.6701 15.6036 19.524C14.8661 19.7569 14.1286 20.0286 13.4688 20.3779C13.43 20.3779 13.43 20.4167 13.3912 20.4167C12.6537 19.4075 12.1491 18.1655 12.0715 16.8069H15.1767V16.8069Z" fill="#5221E6"/>
<path d="M35.9428 0H2.05722C0.931582 0 0 0.931582 0 2.05722V26.5495C0 27.6752 0.931582 28.6068 2.05722 28.6068H35.9428C37.0684 28.6068 38 27.6752 38 26.5495V2.05722C38 0.931582 37.0684 0 35.9428 0ZM36.9132 26.5883C36.9132 27.1318 36.4862 27.5587 35.9428 27.5587H2.05722C1.51381 27.5587 1.08684 27.1318 1.08684 26.5883V5.3565H36.952V26.5883H36.9132ZM36.9132 4.26966H1.04801V2.05722C1.04801 1.51381 1.47498 1.08684 2.01839 1.08684H35.904C36.4474 1.08684 36.8744 1.51381 36.8744 2.05722V4.26966H36.9132Z" fill="#5221E6"/>
<path d="M25.812 2.13477H12.1103C11.7998 2.13477 11.5669 2.36767 11.5669 2.67819C11.5669 2.98871 11.7998 3.22161 12.1103 3.22161H25.812C26.1225 3.22161 26.3554 2.98871 26.3554 2.67819C26.3554 2.36767 26.1225 2.13477 25.812 2.13477Z" fill="#5221E6"/>
<path d="M2.60053 3.22161C2.90064 3.22161 3.14395 2.9783 3.14395 2.67819C3.14395 2.37807 2.90064 2.13477 2.60053 2.13477C2.30041 2.13477 2.05713 2.37807 2.05713 2.67819C2.05713 2.9783 2.30041 3.22161 2.60053 3.22161Z" fill="#5221E6"/>
<path d="M4.38619 3.22161C4.68631 3.22161 4.92959 2.9783 4.92959 2.67819C4.92959 2.37807 4.68631 2.13477 4.38619 2.13477C4.08608 2.13477 3.84277 2.37807 3.84277 2.67819C3.84277 2.9783 4.08608 3.22161 4.38619 3.22161Z" fill="#5221E6"/>
<path d="M6.21039 3.22161C6.51051 3.22161 6.75381 2.9783 6.75381 2.67819C6.75381 2.37807 6.51051 2.13477 6.21039 2.13477C5.91027 2.13477 5.66699 2.37807 5.66699 2.67819C5.66699 2.9783 5.91027 3.22161 6.21039 3.22161Z" fill="#5221E6"/>
</svg>
